<svg width="576" height="60" viewBox="0 0 576 60" fill="none" xmlns="http://www.w3.org/2000/svg">
<g clip-path="url(#clip0_63_3)">
<path d="M538.815 58.3999V15.6799H544.895V33.9999H543.935C543.935 29.7866 544.495 26.2399 545.615 23.3599C546.788 20.4266 548.548 18.2132 550.895 16.7199C553.241 15.1732 556.201 14.3999 559.775 14.3999H560.095C565.481 14.3999 569.455 16.0799 572.015 19.4399C574.628 22.7999 575.935 27.6532 575.935 33.9999V58.3999H568.255V32.3999C568.255 29.0932 567.321 26.4532 565.455 24.4799C563.588 22.4532 561.028 21.4399 557.775 21.4399C554.415 21.4399 551.695 22.4799 549.615 24.5599C547.535 26.6399 546.495 29.4132 546.495 32.8799V58.3999H538.815Z" fill="white"/>
<path d="M513.59 59.8398C509.857 59.8398 506.63 59.1997 503.91 57.9197C501.19 56.6397 498.977 54.9597 497.27 52.8797C495.564 50.7464 494.284 48.3731 493.43 45.7598C492.63 43.1464 492.23 40.4798 492.23 37.7598V36.3197C492.23 33.5464 492.63 30.8531 493.43 28.2397C494.284 25.6264 495.564 23.2797 497.27 21.1997C498.977 19.0664 501.137 17.3864 503.75 16.1598C506.417 14.8797 509.537 14.2397 513.11 14.2397C517.75 14.2397 521.564 15.2531 524.55 17.2798C527.59 19.2531 529.83 21.8131 531.27 24.9597C532.764 28.1064 533.51 31.4664 533.51 35.0397V38.4798H495.59V32.7197H527.91L526.15 35.8398C526.15 32.7998 525.67 30.1864 524.71 27.9997C523.75 25.7597 522.31 24.0264 520.39 22.7997C518.47 21.5731 516.044 20.9597 513.11 20.9597C510.07 20.9597 507.537 21.6531 505.51 23.0397C503.537 24.4264 502.044 26.3198 501.03 28.7197C500.07 31.1198 499.59 33.8931 499.59 37.0397C499.59 40.0797 500.07 42.8264 501.03 45.2797C502.044 47.6797 503.59 49.5997 505.67 51.0397C507.75 52.4264 510.39 53.1198 513.59 53.1198C516.95 53.1198 519.67 52.3731 521.75 50.8798C523.884 49.3864 525.164 47.6531 525.59 45.6797H532.79C532.204 48.6131 531.03 51.1464 529.27 53.2797C527.51 55.4131 525.297 57.0398 522.63 58.1598C519.964 59.2798 516.95 59.8398 513.59 59.8398Z" fill="white"/>
<path d="M468.434 59.84C464.914 59.84 461.767 59.0667 458.994 57.52C456.274 55.9733 454.114 53.7333 452.514 50.8C450.914 47.8133 450.034 44.24 449.874 40.08H451.954V58.4H445.874V0H453.554V28.4L450.834 34.24C451.047 29.6 451.981 25.8133 453.634 22.88C455.287 19.9467 457.447 17.7867 460.114 16.4C462.834 14.96 465.821 14.24 469.074 14.24C472.114 14.24 474.887 14.8267 477.394 16C479.901 17.12 482.061 18.6933 483.874 20.72C485.687 22.6933 487.074 25.0133 488.034 27.68C488.994 30.2933 489.474 33.12 489.474 36.16V37.6C489.474 40.64 488.967 43.4933 487.954 46.16C486.994 48.8267 485.581 51.2 483.714 53.28C481.847 55.3067 479.607 56.9067 476.994 58.08C474.434 59.2533 471.581 59.84 468.434 59.84ZM467.554 53.12C470.434 53.12 472.941 52.4267 475.074 51.04C477.207 49.6533 478.861 47.76 480.034 45.36C481.207 42.9067 481.794 40.08 481.794 36.88C481.794 33.68 481.181 30.88 479.954 28.48C478.781 26.08 477.127 24.24 474.994 22.96C472.861 21.6267 470.381 20.96 467.554 20.96C464.994 20.96 462.621 21.5467 460.434 22.72C458.247 23.84 456.487 25.4933 455.154 27.68C453.874 29.8133 453.234 32.4 453.234 35.44V39.12C453.234 42.0533 453.901 44.56 455.234 46.64C456.567 48.72 458.327 50.32 460.514 51.44C462.701 52.56 465.047 53.12 467.554 53.12Z" fill="white"/>
<path d="M417.092 59.8398C413.358 59.8398 410.078 59.1997 407.252 57.9197C404.425 56.6397 402.025 54.9597 400.052 52.8797C398.132 50.7464 396.665 48.3731 395.652 45.7598C394.692 43.1464 394.212 40.4798 394.212 37.7598V36.3197C394.212 33.5997 394.718 30.9331 395.732 28.3197C396.745 25.6531 398.238 23.2797 400.212 21.1997C402.185 19.0664 404.585 17.3864 407.412 16.1598C410.238 14.8797 413.465 14.2397 417.092 14.2397C420.718 14.2397 423.945 14.8797 426.772 16.1598C429.598 17.3864 431.998 19.0664 433.972 21.1997C435.945 23.2797 437.438 25.6531 438.452 28.3197C439.465 30.9331 439.972 33.5997 439.972 36.3197V37.7598C439.972 40.4798 439.465 43.1464 438.452 45.7598C437.492 48.3731 436.025 50.7464 434.052 52.8797C432.132 54.9597 429.758 56.6397 426.932 57.9197C424.105 59.1997 420.825 59.8398 417.092 59.8398ZM417.092 52.9597C420.292 52.9597 423.012 52.2664 425.252 50.8798C427.545 49.4398 429.278 47.5198 430.452 45.1198C431.678 42.7198 432.292 40.0264 432.292 37.0397C432.292 33.9998 431.678 31.2798 430.452 28.8797C429.225 26.4797 427.465 24.5864 425.172 23.1997C422.932 21.8131 420.238 21.1197 417.092 21.1197C413.998 21.1197 411.305 21.8131 409.012 23.1997C406.718 24.5864 404.958 26.4797 403.732 28.8797C402.505 31.2798 401.892 33.9998 401.892 37.0397C401.892 40.0264 402.478 42.7198 403.652 45.1198C404.878 47.5198 406.612 49.4398 408.852 50.8798C411.145 52.2664 413.892 52.9597 417.092 52.9597Z" fill="white"/>
<path d="M370.668 58.3997V15.6797H376.748V33.2797H376.428C376.428 27.0397 377.788 22.4797 380.508 19.5997C383.281 16.6664 387.415 15.1997 392.908 15.1997H394.348V22.0797H391.628C387.361 22.0797 384.081 23.2264 381.788 25.5197C379.495 27.7597 378.348 31.013 378.348 35.2797V58.3997H370.668Z" fill="white"/>
<path d="M333.247 58.4V0H341.087V58.4H333.247ZM339.487 32.4V25.36L364.527 25.28V32.32L339.487 32.4ZM339.487 7.04V0H365.887V7.04H339.487Z" fill="white"/>
<path d="M273.952 58.4V0H281.632V34.88H279.712C279.712 30.6667 280.245 27.04 281.312 24C282.432 20.9067 284.139 18.5333 286.432 16.88C288.725 15.2267 291.659 14.4 295.232 14.4H295.552C300.672 14.4 304.539 16.1067 307.152 19.52C309.765 22.88 311.072 27.7067 311.072 34V58.4H303.392V32.4C303.392 28.9333 302.405 26.24 300.432 24.32C298.512 22.4 296.005 21.44 292.912 21.44C289.499 21.44 286.752 22.5867 284.672 24.88C282.645 27.12 281.632 30.08 281.632 33.76V58.4H273.952Z" fill="white"/>
<path d="M259.376 58.3997V45.5997H258.096V30.7997C258.096 27.8664 257.323 25.653 255.776 24.1597C254.283 22.6664 252.07 21.9197 249.136 21.9197C247.483 21.9197 245.776 21.9464 244.016 21.9997C242.256 22.053 240.576 22.1064 238.976 22.1597C237.376 22.213 235.99 22.293 234.816 22.3997V15.6797C235.99 15.573 237.216 15.493 238.496 15.4397C239.83 15.333 241.19 15.2797 242.576 15.2797C243.963 15.2264 245.296 15.1997 246.576 15.1997C250.95 15.1997 254.523 15.733 257.296 16.7997C260.07 17.813 262.123 19.493 263.456 21.8397C264.79 24.1864 265.456 27.3597 265.456 31.3597V58.3997H259.376ZM245.376 59.5197C242.176 59.5197 239.403 58.9864 237.056 57.9197C234.763 56.7997 232.976 55.1997 231.696 53.1197C230.47 51.0397 229.856 48.533 229.856 45.5997C229.856 42.5597 230.523 40.0264 231.856 37.9997C233.243 35.973 235.243 34.453 237.856 33.4397C240.47 32.373 243.616 31.8397 247.296 31.8397H258.896V37.5997H246.976C243.883 37.5997 241.51 38.3464 239.856 39.8397C238.203 41.333 237.376 43.253 237.376 45.5997C237.376 47.9464 238.203 49.8397 239.856 51.2797C241.51 52.7197 243.883 53.4397 246.976 53.4397C248.79 53.4397 250.523 53.1197 252.176 52.4797C253.83 51.7864 255.19 50.6664 256.256 49.1197C257.376 47.5197 257.99 45.333 258.096 42.5597L260.176 45.5997C259.91 48.6397 259.163 51.1997 257.936 53.2797C256.763 55.3064 255.11 56.853 252.976 57.9197C250.896 58.9864 248.363 59.5197 245.376 59.5197Z" fill="white"/>
<path d="M161.715 58.3999V15.6799H167.795V33.9999H166.835C166.835 29.8399 167.368 26.3199 168.435 23.4399C169.555 20.5066 171.208 18.2666 173.395 16.7199C175.581 15.1732 178.355 14.3999 181.715 14.3999H182.035C185.395 14.3999 188.168 15.1732 190.355 16.7199C192.595 18.2666 194.248 20.5066 195.315 23.4399C196.381 26.3199 196.915 29.8399 196.915 33.9999H194.675C194.675 29.8399 195.235 26.3199 196.355 23.4399C197.475 20.5066 199.128 18.2666 201.315 16.7199C203.555 15.1732 206.355 14.3999 209.715 14.3999H210.035C213.395 14.3999 216.195 15.1732 218.435 16.7199C220.675 18.2666 222.328 20.5066 223.395 23.4399C224.515 26.3199 225.075 29.8399 225.075 33.9999V58.3999H217.395V32.3199C217.395 28.8532 216.541 26.1866 214.835 24.3199C213.128 22.3999 210.755 21.4399 207.715 21.4399C204.568 21.4399 202.035 22.4532 200.115 24.4799C198.195 26.4532 197.235 29.2266 197.235 32.7999V58.3999H189.555V32.3199C189.555 28.8532 188.701 26.1866 186.995 24.3199C185.288 22.3999 182.915 21.4399 179.875 21.4399C176.728 21.4399 174.195 22.4532 172.275 24.4799C170.355 26.4532 169.395 29.2266 169.395 32.7999V58.3999H161.715Z" fill="white"/>
<path d="M134.502 58.3997V15.6797H140.582V33.2797H140.262C140.262 27.0397 141.622 22.4797 144.342 19.5997C147.116 16.6664 151.249 15.1997 156.742 15.1997H158.182V22.0797H155.462C151.196 22.0797 147.916 23.2264 145.622 25.5197C143.329 27.7597 142.182 31.013 142.182 35.2797V58.3997H134.502Z" fill="white"/>
<path d="M109.278 59.8398C105.544 59.8398 102.318 59.1997 99.5977 57.9197C96.8777 56.6397 94.6644 54.9597 92.9577 52.8797C91.2511 50.7464 89.9711 48.3731 89.1177 45.7598C88.3177 43.1464 87.9177 40.4798 87.9177 37.7598V36.3197C87.9177 33.5464 88.3177 30.8531 89.1177 28.2397C89.9711 25.6264 91.2511 23.2797 92.9577 21.1997C94.6644 19.0664 96.8244 17.3864 99.4377 16.1598C102.104 14.8797 105.224 14.2397 108.798 14.2397C113.438 14.2397 117.251 15.2531 120.238 17.2798C123.278 19.2531 125.518 21.8131 126.958 24.9597C128.451 28.1064 129.198 31.4664 129.198 35.0397V38.4798H91.2777V32.7197H123.598L121.838 35.8398C121.838 32.7998 121.358 30.1864 120.398 27.9997C119.438 25.7597 117.998 24.0264 116.078 22.7997C114.158 21.5731 111.731 20.9597 108.798 20.9597C105.758 20.9597 103.224 21.6531 101.198 23.0397C99.2244 24.4264 97.7311 26.3198 96.7177 28.7197C95.7577 31.1198 95.2777 33.8931 95.2777 37.0397C95.2777 40.0797 95.7577 42.8264 96.7177 45.2797C97.7311 47.6797 99.2777 49.5997 101.358 51.0397C103.438 52.4264 106.078 53.1198 109.278 53.1198C112.638 53.1198 115.358 52.3731 117.438 50.8798C119.571 49.3864 120.851 47.6531 121.278 45.6797H128.478C127.891 48.6131 126.718 51.1464 124.958 53.2797C123.198 55.4131 120.984 57.0398 118.318 58.1598C115.651 59.2798 112.638 59.8398 109.278 59.8398Z" fill="white"/>
<path d="M53.8535 58.4V0H61.6935V58.4H53.8535ZM60.0935 32.4V25.36L85.1335 25.28V32.32L60.0935 32.4ZM60.0935 7.04V0H86.4935V7.04H60.0935Z" fill="white"/>
<path d="M0 31.6967C0 21.4688 8.27897 13.2007 18.4769 13.2007C28.6748 13.2007 36.9538 21.4688 36.9538 31.6967C36.9538 41.9247 28.6748 50.1928 18.4769 50.1928C8.27897 50.1928 0 41.9247 0 31.6967ZM18.4769 47.253C25.9883 47.253 32.0193 40.271 32.0193 31.6967C32.0193 23.1224 25.9335 16.1405 18.4769 16.1405C11.0203 16.1405 4.93448 23.1224 4.93448 31.6967C4.93448 40.271 11.0203 47.253 18.4769 47.253Z" fill="#06C19D"/>
<path d="M15.6258 58.3999H21.3279L21.3279 6.70899H15.6258L15.6258 58.3999Z" fill="#06C19D"/>
<path d="M21.3829 6.76953L27.085 6.76953V0.400039L21.3829 0.400039V6.76953Z" fill="#06C19D"/>
</g>
<defs>
<clipPath id="clip0_63_3">
<rect width="575.93" height="59.84" fill="white"/>
</clipPath>
</defs>
</svg>
